<?xml version="1.0" encoding="utf-8"?>
<!-- Generator: Adobe Illustrator 27.3.1, SVG Export Plug-In . SVG Version: 6.00 Build 0)  -->
<svg version="1.1" id="Calque_1" xmlns="http://www.w3.org/2000/svg" xmlns:xlink="http://www.w3.org/1999/xlink" x="0px" y="0px"
	 viewBox="0 0 1500 1500" style="enable-background:new 0 0 1500 1500;" xml:space="preserve">
<style type="text/css">
	.st0{fill:#FFFFFF;}
</style>
<path class="st0" d="M204.3,757.2c0,43.3,0.1,86.6,0,129.9c-0.3,83.9,16.7,163.3,55.3,238.5c76.8,149.4,198.2,241.7,358.4,286.3
	c21.3,5.9,29.5-0.4,29.4-21.9c-0.4-56.5-0.6-112.9,0.2-169.4c0.3-21.3-7.4-32.4-27.7-42.1c-130-62.3-198.5-163.9-195.5-310.9
	c1.6-80,1.1-160,0-240c-0.6-41.4,8.6-80.3,24.2-117.8C526.9,321.2,756.8,259.6,926,348.9c115.1,60.8,175.1,157.7,174.3,290
	c-0.5,89.4-0.2,178.8-0.3,268.3c-0.1,61.7-24.2,115.1-58.9,164.1c-35.7,50.5-84.7,84.7-140.5,109.8c-12.4,5.6-23,11.1-23,27.8
	c0.1,61.2-0.8,122.3-0.9,183.5c-0.1,17.9,6.4,23.8,26.3,19.1c73.3-17.5,140-48.8,199.8-93.9c126.5-95.2,202.4-220.6,215.1-379.7
	c8.2-103.2,1.9-207,3-310.5c0.5-50.1-6-99.5-20.2-147.3c-68-229.5-276-385.8-524.3-393.8c-131.7-4.2-252.5,35.3-358,114.7
	c-126.5,95.3-200.1,222.1-212,381.1c-4.3,58-0.7,116.6-0.7,175C205.2,757.2,204.8,757.2,204.3,757.2z"/>
<path class="st0" d="M763.7,534.9c-60.4-0.7-108.9,45.3-110,108.4c-1.4,78-0.9,156,1,234c1.5,61.4,48.7,103.2,111,102.3
	c58.6-0.8,104.7-46.4,106.1-105.8c0.9-37.6,0.2-75.2,0.2-112.8c0.1,0,0.2,0,0.3,0c0-39.5,1.2-79-0.3-118.5
	C869.9,582,822.2,535.5,763.7,534.9z"/>
</svg>
